# xmcd
#
# Track frame offsets:
#        150
#        79876
#        116556
#        154357
#
# Disc length: 2645 seconds
#
# Revision: 0
# Processed by: cddbd v1.5.1PL0 Copyright (c) Steve Scherf et al.
# Submitted via: ExactAudioCopy v0.95a5
#
DISCID=2c0a5304
DTITLE=Evgeni Mravinsky, Leningrad Philharmonic Orchestra - Tchaikovsk
DTITLE=y - Symphony No.6
DYEAR=1960
DGENRE=Classical
TTITLE0=Symphony No.6-1.Adagio-Allegro Non Troppo
TTITLE1=Symphony No.6-2.Allegro Con Grazia
TTITLE2=Symphony No.6-3.Allegro Molto Vivace
TTITLE3=Symphony No.6-4.Adagio Lamentoso
EXTD=
EXTT0=
EXTT1=
EXTT2=
EXTT3=
PLAYORDER=
